PathFileType	4	(X/Y/Z)	C:\Users\Basilio\Documents\Thesis Gigler\squatting_fais\c3dfiles\076\SJ_pre1\markers_experimental.trc
DataRate	CameraRate	NumFrames	NumMarkers	Units	OrigDataRate	OrigDataStartFrame	OrigNumFrames
200.000000	200.000000	4	61	mm	200.000000	766	1226
Frame#	Time	FHD			LBHD			RBHD			C7			T10			CLAV			LSHO			LUUPA			LMUPA			LDUPA			LLEP			LMEP			LRAD			LUL			LRFIN			RSHO			RUPA1			RMUPA			RDUPA			RLEP			RMEP			RRAD			RUL			RUFIN			LASI			RASI			USACR			LSACR			RSACR			LTHI1			LTHI2			LTHI3			LTHI4			LLFC			LMFC			LTIB1			LTIB2			LTIB3			LTIB4			LLMAL			LMMAL			LHEE			LMT1			LMT2			LMT5			RTHI			RTHI2			RTHI3			RTHI4			RLFC			RMFC			RTIB1			RTIB2			RTIB3			RTIB4			RLMAL			RMMAL			RHEE			RMT1			RMT2			RMT5			
		X1	Y1	Z1	X2	Y2	Z2	X3	Y3	Z3	X4	Y4	Z4	X5	Y5	Z5	X6	Y6	Z6	X7	Y7	Z7	X8	Y8	Z8	X9	Y9	Z9	X10	Y10	Z10	X11	Y11	Z11	X12	Y12	Z12	X13	Y13	Z13	X14	Y14	Z14	X15	Y15	Z15	X16	Y16	Z16	X17	Y17	Z17	X18	Y18	Z18	X19	Y19	Z19	X20	Y20	Z20	X21	Y21	Z21	X22	Y22	Z22	X23	Y23	Z23	X24	Y24	Z24	X25	Y25	Z25	X26	Y26	Z26	X27	Y27	Z27	X28	Y28	Z28	X29	Y29	Z29	X30	Y30	Z30	X31	Y31	Z31	X32	Y32	Z32	X33	Y33	Z33	X34	Y34	Z34	X35	Y35	Z35	X36	Y36	Z36	X37	Y37	Z37	X38	Y38	Z38	X39	Y39	Z39	X40	Y40	Z40	X41	Y41	Z41	X42	Y42	Z42	X43	Y43	Z43	X44	Y44	Z44	X45	Y45	Z45	X46	Y46	Z46	X47	Y47	Z47	X48	Y48	Z48	X49	Y49	Z49	X50	Y50	Z50	X51	Y51	Z51	X52	Y52	Z52	X53	Y53	Z53	X54	Y54	Z54	X55	Y55	Z55	X56	Y56	Z56	X57	Y57	Z57	X58	Y58	Z58	X59	Y59	Z59	X60	Y60	Z60	X61	Y61	Z61	

767	3.83	-142.2865600585938	1915.430908203125	-874.3472900390627	-278.6823120117188	1864.109619140625	-985.2086181640627	-281.3238525390626	1869.788452148438	-833.474792480469	-342.1245117187501	1740.745361328125	-922.3902587890627	-361.8071899414063	1422.402587890625	-934.2332763671877	-200.5916290283204	1674.349731445313	-901.9265136718752	-236.5594940185547	1700.853149414063	-1080.44287109375	-222.9349212646485	1546.360961914063	-1210.897338867188	-216.2451629638672	1501.252563476563	-1190.106201171875	-228.1566925048829	1486.446655273438	-1247.862060546875	-242.6884460449219	1438.970458984375	-1278.241333007813	-328.8409118652344	1440.198486328125	-1263.159057617188	-302.0178527832032	1267.644287109375	-1113.73046875	-251.5253906250001	1273.086059570313	-1086.645141601563	-264.3793029785157	1226.50439453125	-1146.439453125	-296.3799743652344	1694.050415039063	-749.8265991210939	-381.5814819335938	1564.709228515625	-628.2422485351564	-353.8975524902344	1524.176635742188	-619.5116577148439	-405.9857177734376	1507.453491210938	-593.7061767578126	-414.0476684570314	1437.766967773438	-570.8364257812501	-466.8289794921876	1427.195190429688	-641.3217163085939	-337.5711669921876	1273.7861328125	-733.8891601562501	-317.1272888183594	1238.614013671875	-680.1710815429689	-276.9124755859376	1270.29296875	-746.7872314453126	-195.8909149169922	1233.103881835938	-1021.32421875	-206.7551269531251	1241.588745117188	-811.9667968750002	-359.1342163085938	1321.499633789063	-932.1967773437502	-365.5117492675782	1292.84033203125	-962.5706787109377	-368.5581665039063	1290.395629882813	-905.4202270507815	-296.2588195800782	1082.108032226563	-1104.627197265625	-272.1864929199219	1000.443359375	-1109.23486328125	-223.3469543457032	1001.025634765625	-1101.424926757813	-303.5959167480469	949.9001464843752	-1096.193603515625	-310.4735412597657	790.260437011719	-1079.083862304688	-256.1956176757813	775.2061157226565	-973.623718261719	-278.4668579101563	636.2781372070314	-1029.669921875	-323.4139404296876	591.6130981445314	-1091.8828125	-285.2924194335938	589.0530395507814	-1064.705078125	-300.1121826171876	510.2704162597657	-1035.923095703125	-385.350067138672	401.145721435547	-1076.677001953125	-330.4868774414063	395.782928466797	-1011.894836425781	-423.1649475097657	401.9828491210939	-1012.293334960938	-270.7473449707032	272.7385864257813	-1062.658447265625	-274.6761169433594	275.1523132324219	-1101.614501953125	-314.0411376953126	280.8370666503907	-1140.601318359375	-304.0751647949219	988.452331542969	-740.7117309570314	-267.4641418457032	932.6435546875002	-730.1929321289064	-232.5476989746094	935.4888916015627	-733.5328979492189	-292.3381958007813	855.5063476562502	-746.1715087890626	-288.9594726562501	795.441833496094	-746.6336669921876	-244.7750549316407	786.2847900390627	-857.1844482421877	-247.0385284423829	661.2143554687501	-753.6266479492189	-320.9120483398438	583.8715209960939	-732.8495483398439	-274.0019836425782	579.6950073242189	-735.4810791015626	-257.8069152832032	530.9233398437501	-763.7332153320314	-332.6033935546876	394.8702087402345	-737.8581542968751	-290.3950500488282	401.7112121582032	-812.1174316406252	-377.1860351562501	406.050262451172	-792.6004028320315	-220.061264038086	276.1398620605469	-793.037048339844	-218.6271667480469	273.8442382812501	-746.7998046875001	-263.1300964355469	266.3123168945313	-705.8082885742189	
768	3.835	-142.6629943847657	1909.450439453125	-874.9019775390627	-278.4541931152344	1858.437744140625	-985.7581176757815	-281.6994323730469	1863.594482421875	-833.8917236328127	-342.2991027832032	1734.61572265625	-922.949890136719	-361.7363891601563	1416.330322265625	-934.074890136719	-200.7516021728516	1668.14404296875	-902.2103271484377	-236.5458984375001	1694.378540039063	-1080.779174804688	-222.2532653808594	1539.832275390625	-1210.81494140625	-215.8191833496094	1494.67724609375	-1190.155517578125	-228.1027832031251	1479.896728515625	-1248.035888671875	-242.3962097167969	1432.332885742188	-1278.345092773438	-328.4548339843751	1433.728881835938	-1263.486450195313	-302.1101989746094	1261.441528320313	-1113.851196289063	-251.4878082275391	1267.021484375	-1086.585571289063	-264.2037658691407	1220.171264648438	-1146.273193359375	-296.5379638671876	1688.151611328125	-750.2135009765626	-382.1535644531251	1559.082153320313	-628.6174926757814	-354.4461059570313	1518.594360351563	-619.8584594726564	-406.6265258789064	1501.833374023438	-594.1359863281251	-414.7110595703126	1432.24169921875	-571.1010131835939	-467.0727539062501	1421.601196289063	-641.7977294921876	-337.8732604980469	1267.934814453125	-733.6930541992189	-317.3832702636719	1232.935913085938	-679.9918212890626	-276.9979248046876	1264.411987304688	-746.6143188476564	-196.4843444824219	1227.03173828125	-1021.339904785156	-206.9100036621094	1235.43798828125	-811.8056640625002	-359.3922729492188	1315.545776367188	-932.1048583984377	-365.9448852539063	1287.0625	-962.530944824219	-369.0462341308594	1284.600708007813	-905.4470825195315	-296.8935546875001	1076.384765625	-1104.954711914063	-272.0778808593751	994.7644042968752	-1109.623657226563	-223.197494506836	995.3347167968752	-1101.690551757813	-303.2993469238282	943.9816894531252	-1096.72412109375	-309.5986633300782	784.3663330078127	-1080.300048828125	-256.0595703125001	769.0893554687502	-974.6096801757815	-277.4912414550782	630.2824096679689	-1031.1875	-321.8508911132813	585.6662597656251	-1093.543701171875	-283.8994750976563	583.1945800781251	-1066.371215820313	-298.4675903320313	504.1376953125001	-1037.55810546875	-383.5191040039063	395.0159912109376	-1079.382080078125	-329.0392456054688	389.6492004394532	-1014.0693359375	-422.0769958496095	394.811492919922	-1015.329650878906	-267.5499572753907	267.5676574707032	-1065.353515625	-271.4313354492188	270.3148498535157	-1104.18017578125	-311.0014648437501	276.0007019042969	-1143.594482421875	-303.2255859375001	982.1716918945315	-740.1538085937501	-266.4478454589844	926.495544433594	-729.7874145507814	-231.4266815185547	929.3948364257815	-733.2506713867189	-290.9217529296876	849.2998657226565	-745.3859863281251	-287.1136779785157	789.3941040039065	-745.7899169921876	-245.1305084228516	779.928894042969	-856.8508911132815	-245.0631866455079	654.9316406250001	-752.8611450195314	-318.8579406738282	577.7484741210939	-731.6393432617189	-271.9462280273438	573.5944213867189	-734.7700805664064	-255.8811035156251	524.8350830078126	-762.8631591796876	-330.6093750000001	388.7567443847657	-736.6879882812501	-289.1268005371094	395.6839904785157	-811.2293701171877	-375.2890625000001	399.797821044922	-791.4798583984377	-217.6812591552735	270.3203735351563	-791.4790649414065	-216.750473022461	267.8960266113282	-745.6864624023439	-260.8314819335938	260.6069946289063	-704.0852050781251	
769	3.84	-143.0386047363282	1903.340087890625	-875.0924072265627	-279.4478454589844	1851.276245117188	-985.966247558594	-282.0133361816407	1857.205932617188	-834.3016357421877	-342.1015930175782	1728.189575195313	-923.2451782226565	-362.2515563964844	1409.965209960938	-933.9749145507815	-200.7098388671876	1661.581420898438	-902.3877563476565	-236.8177337646485	1687.928588867188	-1081.405029296875	-222.4203033447266	1533.095947265625	-1211.29248046875	-215.7259368896485	1487.797729492188	-1190.300170898438	-228.0512695312501	1473.121704101563	-1248.284545898438	-241.5068969726563	1425.416625976563	-1278.068115234375	-328.1950378417969	1426.858154296875	-1263.7216796875	-301.7408752441407	1254.817016601563	-1113.922241210938	-251.7328033447266	1260.47119140625	-1086.46728515625	-264.1426391601563	1213.646240234375	-1146.321899414063	-296.7602844238282	1681.921508789063	-750.5361328125001	-382.6096801757813	1553.189697265625	-628.9486694335939	-354.9492492675782	1512.757080078125	-619.9781494140626	-407.2232971191407	1495.89208984375	-594.3946533203126	-415.3767700195314	1426.3935546875	-571.5902099609376	-467.6082153320314	1415.47607421875	-642.2211303710939	-337.9041442871094	1261.95458984375	-733.5520629882814	-317.6540832519532	1226.970825195313	-679.7052001953126	-277.1608276367188	1258.382080078125	-746.5636596679689	-196.9570617675782	1220.795532226563	-1021.094970703125	-207.3928833007813	1228.940063476563	-811.8782348632815	-359.8351745605469	1309.420166015625	-932.1791992187502	-365.9906921386719	1280.676025390625	-962.5690917968752	-369.4554138183594	1278.388671875	-905.394714355469	-297.1637573242188	1070.221923828125	-1105.27978515625	-271.9779357910157	988.6390380859377	-1109.987670898438	-223.0467224121094	989.2175292968752	-1101.861328125	-303.3235473632813	937.8918457031252	-1097.32373046875	-308.6335754394532	778.2012939453127	-1081.504272460938	-255.4455566406251	762.8030395507814	-975.5322265625002	-276.2699890136719	624.1528320312501	-1032.42333984375	-320.3245849609376	579.5855712890626	-1095.266235351563	-282.4659423828126	576.9320068359376	-1067.925659179688	-297.0740356445313	497.9287719726564	-1039.22802734375	-381.5047912597657	388.4629211425782	-1081.929565429688	-327.7109680175782	383.3962707519532	-1016.350036621094	-420.9180603027345	387.3034057617189	-1018.307495117188	-264.3729553222657	262.6846313476563	-1067.560180664063	-268.0235595703126	265.2580261230469	-1106.728637695313	-306.4190063476563	270.6574401855469	-1146.473022460938	-302.3855895996094	975.6756591796877	-739.4910888671876	-265.2279663085938	920.1853637695315	-729.1594238281251	-230.2677764892579	923.2542724609377	-732.9341430664064	-289.3327331542969	842.8980102539065	-744.6043701171876	-285.2732849121094	782.9650878906252	-744.9677124023439	-243.1139068603516	773.4863281250002	-855.9515380859377	-242.8806610107422	648.7869873046876	-752.0634155273439	-316.7190551757813	571.3803100585939	-730.5467529296876	-269.9474487304688	567.1750488281251	-733.9199218750001	-253.9248657226563	518.4967651367189	-762.0631713867189	-328.6467895507813	382.7182006835938	-735.5755004882814	-286.6705322265626	389.2562561035157	-810.0415039062502	-373.4299621582032	393.2343139648439	-790.5158691406252	-215.3590087890626	264.1665344238282	-789.9678955078127	-214.2164611816407	262.0286560058594	-743.9596557617189	-258.3977050781251	254.9721832275391	-702.5061645507814	
770	3.845	-143.4001922607422	1896.825805664063	-875.5587158203127	-279.1856994628907	1845.118041992188	-986.7545166015627	-282.2513427734376	1850.50830078125	-834.7572021484377	-342.1836242675782	1721.496215820313	-923.773376464844	-362.7229309082032	1403.392333984375	-933.8845825195315	-200.9638824462891	1654.889770507813	-902.8231201171877	-236.2959136962891	1680.83349609375	-1081.4384765625	-222.2653045654297	1526.060791015625	-1211.339965820313	-215.7177276611329	1480.906372070313	-1190.508422851563	-227.3697509765626	1466.06103515625	-1248.318115234375	-241.2417907714844	1418.396484375	-1278.219360351563	-328.1334838867188	1419.9345703125	-1264.014526367188	-302.2337646484376	1247.9599609375	-1114.066772460938	-251.766586303711	1253.89453125	-1086.486694335938	-264.0095214843751	1206.795166015625	-1146.16162109375	-296.8487548828126	1675.496337890625	-750.9010009765626	-382.9855041503907	1547.083618164063	-629.3066406250001	-355.4630126953126	1506.55908203125	-620.2554321289064	-407.757293701172	1489.866577148438	-594.7078247070314	-416.0731506347657	1420.217163085938	-571.6784667968751	-467.9646606445314	1409.283203125	-642.7629394531251	-338.0704040527344	1255.617431640625	-733.3687133789064	-317.8667602539063	1220.955810546875	-679.3338012695314	-277.3516540527344	1251.994873046875	-746.4483032226564	-197.3437500000001	1214.105834960938	-1020.988586425781	-207.6516418457032	1222.227783203125	-811.8860473632815	-360.2169189453126	1303.0712890625	-932.0020751953127	-366.6733093261719	1274.465209960938	-962.5850830078127	-369.9472656250001	1271.89453125	-905.377380371094	-297.0151977539063	1063.897705078125	-1105.484375	-271.8792114257813	982.2949829101565	-1110.394409179688	-222.8264770507813	983.0333251953127	-1102.170532226563	-302.5512390136719	931.323913574219	-1097.85107421875	-307.3272399902344	771.7526855468752	-1082.739990234375	-254.8785858154297	756.5598144531251	-976.4402465820315	-275.5588073730469	617.6500854492189	-1034.116333007813	-318.6611022949219	573.0892944335939	-1097.110107421875	-280.9961547851563	570.6098632812501	-1069.341430664063	-295.6846008300782	491.5373535156251	-1041.124389648438	-379.9098815917969	382.0641479492188	-1084.532836914063	-326.3382873535157	376.8940429687501	-1018.555786132813	-419.8801269531251	379.5474243164063	-1021.226745605469	-261.2072448730469	257.2906799316407	-1070.245727539063	-264.5442810058594	260.0357055664063	-1109.370361328125	-302.8603210449219	265.1727294921876	-1149.147338867188	-301.5775756835938	968.9260864257815	-738.8157348632814	-264.0245971679688	913.682800292969	-728.6351928710939	-229.1002502441407	916.9755859375002	-732.5158691406251	-287.8127136230469	836.0834960937502	-743.7963256835939	-283.3910827636719	776.4552001953127	-744.1987304687501	-241.607894897461	766.8331909179689	-855.3551025390627	-240.871322631836	642.0672607421876	-751.3743896484376	-314.6265869140626	564.8463134765626	-729.4864501953126	-267.7715454101563	560.6627197265626	-732.9489135742189	-251.944320678711	511.8919372558595	-761.2986450195314	-326.7945861816407	376.3642883300782	-734.5579223632814	-284.9930419921876	382.6608886718751	-809.0867309570315	-371.6671752929688	386.3780822753907	-789.5044555664065	-213.0681304931641	257.9147338867188	-788.4022216796877	-211.7181396484376	256.3044433593751	-742.2697753906251	-256.1833496093751	248.9757537841797	-700.9265747070314	
